<?xml version="1.0" standalone="no"?>
<!DOCTYPE svg PUBLIC "-//W3C//DTD SVG 20010904//EN"
 "http://www.w3.org/TR/2001/REC-SVG-20010904/DTD/svg10.dtd">
<svg version="1.0" xmlns="http://www.w3.org/2000/svg"
 width="16.000000pt" height="16.000000pt" viewBox="0 0 16.000000 16.000000"
 preserveAspectRatio="xMidYMid meet">
<metadata>
Created by potrace 1.11, written by Peter Selinger 2001-2013
</metadata>
<g transform="translate(0.000000,16.000000) scale(0.001600,-0.001600)"
fill="#000000" stroke="none">
<path d="M6518 7234 c-57 -31 -77 -127 -37 -178 11 -14 37 -35 57 -45 32 -16
40 -29 78 -127 l42 -109 -52 -28 c-64 -35 -138 -107 -168 -164 l-23 -43 -93 0
-92 0 2 -1357 3 -1358 29 -85 c118 -353 375 -624 693 -729 147 -49 210 -53
758 -48 465 4 520 6 623 26 197 36 301 70 442 143 265 136 425 361 475 668 47
296 -20 555 -203 776 -70 85 -148 146 -257 199 -49 25 -83 45 -75 45 21 0 158
89 210 136 104 94 187 240 216 381 20 93 14 343 -9 436 -14 55 -13 60 11 125
17 47 26 95 29 163 7 117 -6 177 -53 255 l-35 58 88 88 c80 80 91 88 126 88
75 0 127 53 127 129 0 60 -50 113 -107 115 -84 2 -140 -60 -130 -143 l6 -48
-85 -84 -84 -84 -28 18 c-15 10 -56 33 -92 50 -62 31 -70 32 -185 32 -115 0
-123 -1 -191 -33 l-71 -33 -64 16 c-175 46 -196 47 -719 52 l-505 5 -18 42
c-23 56 -99 132 -169 167 -60 30 -174 54 -217 44 -25 -5 -28 -1 -69 109 l-44
114 24 32 c17 23 23 45 23 82 0 44 -4 53 -37 84 -31 28 -45 34 -80 34 -24 -1
-55 -7 -70 -16z m1605 -1337 c151 -44 263 -130 319 -245 31 -63 33 -73 33
-177 0 -103 -2 -114 -32 -178 -60 -127 -195 -230 -360 -276 -181 -50 -399 -52
-598 -6 -354 83 -398 86 -497 37 -37 -18 -97 -61 -137 -98 -47 -44 -68 -58
-62 -43 6 13 33 82 61 153 l50 129 0 281 c0 172 4 297 11 321 15 55 53 103 92
114 19 6 240 9 547 7 452 -2 522 -4 573 -19z m-3 -1417 c196 -47 367 -165 432
-298 30 -61 33 -75 33 -162 0 -84 -3 -102 -28 -152 -47 -96 -150 -175 -290
-222 -120 -40 -202 -46 -666 -45 -492 1 -493 1 -584 66 -33 23 -54 49 -78 99
l-34 69 -3 332 -4 333 569 0 c536 0 573 -1 653 -20z"/>
<path d="M7275 5677 c-43 -20 -92 -80 -105 -128 -44 -164 157 -297 289 -191
53 43 72 82 72 147 0 65 -19 104 -74 148 -30 25 -49 31 -95 34 -34 2 -69 -2
-87 -10z"/>
<path d="M7925 5677 c-43 -20 -92 -80 -105 -128 -19 -68 4 -134 64 -187 114
-100 299 -12 299 143 0 63 -21 104 -76 148 -30 25 -49 31 -95 34 -34 2 -69 -2
-87 -10z"/>
<path d="M1485 6591 c-53 -25 -88 -63 -122 -136 -26 -55 -28 -70 -28 -175 0
-127 18 -185 73 -244 60 -63 74 -66 430 -66 l323 0 -4 -792 c-4 -773 -4 -795
-26 -892 -84 -375 -309 -605 -658 -672 -58 -11 -136 -17 -228 -17 -242 1 -417
49 -572 154 -45 31 -53 34 -53 19 0 -5 -63 -136 -141 -292 -131 -264 -139
-283 -122 -296 38 -29 222 -113 308 -141 440 -142 960 -116 1352 70 270 128
522 380 652 652 86 178 142 383 161 588 7 76 10 473 8 1184 l-3 1070 -655 2
c-620 3 -657 2 -695 -16z"/>
<path d="M3882 6138 c-116 -260 -477 -1065 -801 -1788 -324 -723 -588 -1318
-585 -1322 3 -4 166 -7 363 -7 271 0 361 3 369 12 5 6 58 119 117 250 123 271
155 316 258 367 35 17 92 34 132 40 41 6 395 10 865 10 l795 0 149 -335 c83
-184 156 -337 163 -339 21 -8 721 -7 726 1 3 5 -184 429 -414 943 -231 514
-591 1319 -802 1787 l-382 853 -370 0 -371 0 -212 -472z m917 -1063 l318 -730
-96 -6 c-53 -4 -285 -7 -516 -8 -386 0 -423 1 -460 18 -49 22 -99 77 -115 126
-30 91 -23 110 265 760 197 443 272 601 278 588 4 -10 151 -346 326 -748z"/>
</g>
</svg>
